<svg class="icon" width="200" height="200" viewBox="0 0 1024 1024" xmlns="http://www.w3.org/2000/svg"><path d="M336.992 127.68l372.672 372.672c.064.064.064.16.128.192.064.064.128.064.192.128 2.752 2.752 4.032 6.304 4.32 9.952.032.48.256.896.256 1.376 0 .48-.192.896-.256 1.376-.288 3.648-1.568 7.2-4.32 9.952-.064.064-.128.064-.192.128s-.064.16-.128.192L336.992 896.352c-6.432 6.432-16.704 6.592-22.976.32-6.24-6.24-6.112-16.512.32-22.976L676.064 512 314.368 150.304c-6.432-6.432-6.592-16.704-.32-22.976 6.208-6.24 16.512-6.08 22.944.352z" fill="#9E9E9E"/></svg>